<svg xmlns="http://www.w3.org/2000/svg" viewBox="0 0 640 400" font-family="monospace" font-size="11">
<rect width="640" height="400" fill="white"/>
<text x="320.0" y="18" text-anchor="middle">clinc150: p95 request latency vs Q</text>
<line x1="48" y1="360.0" x2="624" y2="360.0" stroke="#eee"/>
<text x="42" y="363.0" text-anchor="end" fill="#555">23.7</text>
<line x1="48" y1="229.4" x2="624" y2="229.4" stroke="#eee"/>
<text x="42" y="232.4" text-anchor="end" fill="#555">56</text>
<line x1="48" y1="160.3" x2="624" y2="160.3" stroke="#eee"/>
<text x="42" y="163.3" text-anchor="end" fill="#555">88.3</text>
<line x1="48" y1="113.1" x2="624" y2="113.1" stroke="#eee"/>
<text x="42" y="116.1" text-anchor="end" fill="#555">121</text>
<line x1="48" y1="77.1" x2="624" y2="77.1" stroke="#eee"/>
<text x="42" y="80.1" text-anchor="end" fill="#555">153</text>
<line x1="48" y1="48.0" x2="624" y2="48.0" stroke="#eee"/>
<text x="42" y="51.0" text-anchor="end" fill="#555">185</text>
<line x1="48.0" y1="360" x2="48.0" y2="364" stroke="#888"/>
<text x="48.0" y="376" text-anchor="middle" fill="#555">1</text>
<line x1="59.8" y1="360" x2="59.8" y2="364" stroke="#888"/>
<text x="59.8" y="376" text-anchor="middle" fill="#555">2</text>
<line x1="83.3" y1="360" x2="83.3" y2="364" stroke="#888"/>
<text x="83.3" y="376" text-anchor="middle" fill="#555">4</text>
<line x1="130.3" y1="360" x2="130.3" y2="364" stroke="#888"/>
<text x="130.3" y="376" text-anchor="middle" fill="#555">8</text>
<line x1="224.3" y1="360" x2="224.3" y2="364" stroke="#888"/>
<text x="224.3" y="376" text-anchor="middle" fill="#555">16</text>
<line x1="412.4" y1="360" x2="412.4" y2="364" stroke="#888"/>
<text x="412.4" y="376" text-anchor="middle" fill="#555">32</text>
<line x1="624.0" y1="360" x2="624.0" y2="364" stroke="#888"/>
<text x="624.0" y="376" text-anchor="middle" fill="#555">50</text>
<line x1="48" y1="360" x2="624" y2="360" stroke="#333"/>
<line x1="48" y1="360" x2="48" y2="48" stroke="#333"/>
<text x="320.0" y="396" text-anchor="middle" fill="#333">questions per request</text>
<text x="12" y="200.0" text-anchor="middle" fill="#333" transform="rotate(-90 12 200.0)">ms (log scale)</text>
<polyline points="48.0,103.4 59.8,166.1 83.3,97.5 130.3,98.7 224.3,168.6 412.4,189.3 624.0,177.7" fill="none" stroke="#d62728" stroke-width="2"/>
<circle cx="48.0" cy="103.4" r="3" fill="#d62728"/>
<circle cx="59.8" cy="166.1" r="3" fill="#d62728"/>
<circle cx="83.3" cy="97.5" r="3" fill="#d62728"/>
<circle cx="130.3" cy="98.7" r="3" fill="#d62728"/>
<circle cx="224.3" cy="168.6" r="3" fill="#d62728"/>
<circle cx="412.4" cy="189.3" r="3" fill="#d62728"/>
<circle cx="624.0" cy="177.7" r="3" fill="#d62728"/>
<rect x="434" y="54" width="14" height="3" fill="#d62728"/>
<text x="454" y="59">A sequential classifier</text>
<polyline points="48.0,185.3 59.8,78.7 83.3,177.1 130.3,192.0 224.3,181.2 412.4,90.7 624.0,301.5" fill="none" stroke="#ff7f0e" stroke-width="2"/>
<circle cx="48.0" cy="185.3" r="3" fill="#ff7f0e"/>
<circle cx="59.8" cy="78.7" r="3" fill="#ff7f0e"/>
<circle cx="83.3" cy="177.1" r="3" fill="#ff7f0e"/>
<circle cx="130.3" cy="192.0" r="3" fill="#ff7f0e"/>
<circle cx="224.3" cy="181.2" r="3" fill="#ff7f0e"/>
<circle cx="412.4" cy="90.7" r="3" fill="#ff7f0e"/>
<circle cx="624.0" cy="301.5" r="3" fill="#ff7f0e"/>
<rect x="434" y="70" width="14" height="3" fill="#ff7f0e"/>
<text x="454" y="75">B batched classifier</text>
<polyline points="48.0,179.4 59.8,127.7 83.3,188.8 130.3,57.4 224.3,148.0 412.4,160.7 624.0,264.4" fill="none" stroke="#1f77b4" stroke-width="2"/>
<circle cx="48.0" cy="179.4" r="3" fill="#1f77b4"/>
<circle cx="59.8" cy="127.7" r="3" fill="#1f77b4"/>
<circle cx="83.3" cy="188.8" r="3" fill="#1f77b4"/>
<circle cx="130.3" cy="57.4" r="3" fill="#1f77b4"/>
<circle cx="224.3" cy="148.0" r="3" fill="#1f77b4"/>
<circle cx="412.4" cy="160.7" r="3" fill="#1f77b4"/>
<circle cx="624.0" cy="264.4" r="3" fill="#1f77b4"/>
<rect x="434" y="86" width="14" height="3" fill="#1f77b4"/>
<text x="454" y="91">C VSS single-pass</text>
</svg>